<svg width="1600" height="900" viewBox="0 0 1600 900" fill="none" xmlns="http://www.w3.org/2000/svg">
  <defs>
    <linearGradient id="bg2" x1="128" y1="84" x2="1436" y2="816" gradientUnits="userSpaceOnUse">
      <stop stop-color="#102033"/>
      <stop offset="0.46" stop-color="#172C42"/>
      <stop offset="1" stop-color="#274663"/>
    </linearGradient>
    <linearGradient id="glow" x1="0" y1="0" x2="1" y2="1">
      <stop stop-color="#F59E0B"/>
      <stop offset="1" stop-color="#FCD34D"/>
    </linearGradient>
  </defs>

  <rect width="1600" height="900" rx="40" fill="#0B1522"/>
  <rect x="36" y="36" width="1528" height="828" rx="34" fill="url(#bg2)"/>
  <circle cx="1348" cy="164" r="132" fill="#F59E0B" fill-opacity="0.18"/>
  <circle cx="262" cy="784" r="168" fill="#7DD3FC" fill-opacity="0.14"/>
  <circle cx="1488" cy="726" r="110" fill="#F8FAFC" fill-opacity="0.08"/>

  <rect x="122" y="112" width="268" height="56" rx="28" fill="#F8FAFC"/>
  <text x="156" y="148" fill="#0F172A" font-family="Segoe UI, Arial, sans-serif" font-size="28" font-weight="700">PUBLIC PREVIEW LIVE</text>

  <text x="120" y="280" fill="#FFFDF8" font-family="Georgia, 'Times New Roman', serif" font-size="124" font-weight="700">SplatVault</text>
  <text x="128" y="346" fill="#D7E3ED" font-family="Segoe UI, Arial, sans-serif" font-size="34" font-weight="600">Local-first multimodal asset search</text>
  <text x="128" y="390" fill="#D7E3ED" font-family="Segoe UI, Arial, sans-serif" font-size="34" font-weight="600">for 3D, video, scan, and AI data workflows</text>

  <text x="128" y="500" fill="#FFFDF8" font-family="Segoe UI, Arial, sans-serif" font-size="54" font-weight="700">Search your local asset library by meaning,</text>
  <text x="128" y="564" fill="#FFFDF8" font-family="Segoe UI, Arial, sans-serif" font-size="54" font-weight="700">not filenames.</text>

  <rect x="128" y="640" width="238" height="64" rx="32" fill="url(#glow)"/>
  <text x="168" y="682" fill="#111827" font-family="Segoe UI, Arial, sans-serif" font-size="28" font-weight="800">Community Edition</text>

  <rect x="390" y="640" width="176" height="64" rx="32" fill="#E2E8F0" fill-opacity="0.14" stroke="#CBD5E1" stroke-opacity="0.4"/>
  <text x="431" y="682" fill="#F8FAFC" font-family="Segoe UI, Arial, sans-serif" font-size="28" font-weight="700">Not a renderer</text>

  <g>
    <rect x="1028" y="166" width="370" height="470" rx="30" fill="#F8FAFC"/>
    <rect x="1054" y="194" width="318" height="58" rx="18" fill="#E2E8F0"/>
    <text x="1080" y="231" fill="#334155" font-family="Segoe UI, Arial, sans-serif" font-size="22" font-weight="700">sunset drone shot above coastline</text>

    <rect x="1054" y="286" width="146" height="118" rx="18" fill="#274663"/>
    <rect x="1216" y="286" width="156" height="118" rx="18" fill="#D39A56"/>
    <rect x="1054" y="420" width="146" height="118" rx="18" fill="#7AA5C4"/>
    <rect x="1216" y="420" width="156" height="118" rx="18" fill="#1F3349"/>

    <rect x="1068" y="560" width="292" height="22" rx="11" fill="#CBD5E1"/>
    <rect x="1068" y="594" width="188" height="18" rx="9" fill="#E2E8F0"/>
  </g>

  <text x="128" y="792" fill="#E2E8F0" font-family="Segoe UI, Arial, sans-serif" font-size="26" font-weight="600">github.com/morganshen153/splatvault</text>
</svg>
